<svg width="186" height="21" viewBox="0 0 186 21" fill="none" xmlns="http://www.w3.org/2000/svg">
<path d="M5.125 17L1.9375 8.5625H1.78125V17H0.15625V5.90625H2.25L5.4375 14.3438H5.59375V5.90625H7.21875V17H5.125ZM9.79688 20.7344L9.71875 19.2188L12.375 19.1406C13.2135 19.1146 13.8229 18.8828 14.2031 18.4453C14.5833 18.0078 14.776 17.3646 14.7812 16.5156V15.5H14.625C14.5729 16.0208 14.3516 16.4271 13.9609 16.7188C13.5755 17.0104 13.0651 17.1562 12.4297 17.1562C11.3464 17.1562 10.5234 16.7995 9.96094 16.0859C9.40365 15.3724 9.125 14.3229 9.125 12.9375C9.125 11.5 9.40365 10.4115 9.96094 9.67188C10.5234 8.93229 11.3464 8.5625 12.4297 8.5625C13.0755 8.5625 13.599 8.70833 14 9C14.401 9.29167 14.6354 9.69792 14.7031 10.2188H14.8047L14.9375 8.71875H16.4375V16.2656C16.4375 17.7396 16.1016 18.8281 15.4297 19.5312C14.7578 20.2344 13.6875 20.6094 12.2188 20.6562L9.79688 20.7344ZM14.7812 12.5781C14.7812 10.8385 14.1198 9.96875 12.7969 9.96875C11.4427 9.96875 10.7656 10.9583 10.7656 12.9375C10.7656 14.8125 11.4427 15.75 12.7969 15.75C14.1198 15.75 14.7812 14.8802 14.7812 13.1406V12.5781ZM21.625 17.1562C20.7552 17.1562 20.0807 16.8984 19.6016 16.3828C19.1276 15.862 18.8906 15.1302 18.8906 14.1875V8.71875H20.5469V14.1875C20.5469 14.6615 20.6823 15.0286 20.9531 15.2891C21.224 15.5443 21.6042 15.6719 22.0938 15.6719C22.6979 15.6719 23.1536 15.4818 23.4609 15.1016C23.7682 14.7161 23.9219 14.0729 23.9219 13.1719V8.71875H25.5781V15.5L26.7188 15.6719V17L24.0625 17.0781L23.9453 15.4062H23.7969C23.6667 15.9688 23.4115 16.401 23.0312 16.7031C22.651 17.0052 22.1823 17.1562 21.625 17.1562ZM27.7109 20.75L27.6328 19.2656L28.9297 19.1094C29.5911 19.0312 30.1354 18.8307 30.5625 18.5078C30.9948 18.1849 31.3594 17.6823 31.6562 17H30.8516L27.5547 8.71875H29.2734L31.9766 15.75H32.0938L34.1172 8.71875H35.8359L33.4453 16.2656C33.1328 17.2552 32.7812 18.0521 32.3906 18.6562C32.0052 19.2604 31.5469 19.7135 31.0156 20.0156C30.4896 20.3177 29.8568 20.5104 29.1172 20.5938L27.7109 20.75ZM41.9062 17.1562C40.4948 17.1562 39.4036 16.7865 38.6328 16.0469C37.8672 15.3021 37.4844 14.2344 37.4844 12.8438C37.4844 11.4896 37.8099 10.4375 38.4609 9.6875C39.112 8.9375 40.0312 8.5625 41.2188 8.5625C42.3385 8.5625 43.2031 8.90104 43.8125 9.57812C44.4271 10.2552 44.7344 11.2396 44.7344 12.5312C44.7344 12.9115 44.7188 13.2656 44.6875 13.5938H39.0938C39.2396 14.2865 39.5677 14.8125 40.0781 15.1719C40.5885 15.526 41.2604 15.7031 42.0938 15.7031C42.4375 15.7031 42.776 15.6849 43.1094 15.6484C43.4427 15.6068 43.7812 15.5521 44.125 15.4844L44.3281 16.9375C43.8385 17.0312 43.3906 17.0911 42.9844 17.1172C42.5781 17.1432 42.2188 17.1562 41.9062 17.1562ZM39.0312 12.3281H43.2344C43.2344 11.5833 43.0573 11.013 42.7031 10.6172C42.349 10.2161 41.8594 10.0156 41.2344 10.0156C40.5938 10.0156 40.0833 10.2161 39.7031 10.6172C39.3229 11.0182 39.099 11.5885 39.0312 12.3281ZM38.6406 7.25L40.5156 4.28125H41.8594L43.7344 7.25H42.0781L41.1875 5.48438L40.2969 7.25H38.6406ZM38.4531 3.125V2.8125C38.4531 1.51042 39 0.859375 40.0938 0.859375C40.3021 0.859375 40.4974 0.893229 40.6797 0.960938C40.862 1.02344 41.0521 1.10417 41.25 1.20312C41.5104 1.33333 41.7318 1.4401 41.9141 1.52344C42.1016 1.60156 42.2604 1.64062 42.3906 1.64062C42.6719 1.64062 42.8125 1.47396 42.8125 1.14062V0.4375H44.1562V1.0625C44.1562 2.3125 43.6667 2.9375 42.6875 2.9375C42.5417 2.9375 42.362 2.90625 42.1484 2.84375C41.9349 2.78125 41.6901 2.68229 41.4141 2.54688C41.2422 2.45833 41.0703 2.3724 40.8984 2.28906C40.7266 2.20052 40.5573 2.15625 40.3906 2.15625C40.0052 2.15625 39.8125 2.34896 39.8125 2.73438V3.125H38.4531ZM52.2812 17V11.6094C52.2812 11.1094 52.151 10.724 51.8906 10.4531C51.6302 10.1823 51.2656 10.0469 50.7969 10.0469C49.4948 10.0469 48.8438 10.8125 48.8438 12.3438V17H47.1875V8.71875H48.6875L48.8203 10.2188H49C49.0938 9.11458 49.8229 8.5625 51.1875 8.5625C52.0625 8.5625 52.7396 8.82812 53.2188 9.35938C53.6979 9.89062 53.9375 10.6406 53.9375 11.6094V17H52.2812ZM65.625 17V5.90625H68.0469L69.25 10.6719H69.375L70.5781 5.90625H73V17H71.4375V7.875H71.2344L70.0312 12.4688H68.5938L67.3906 7.875H67.1875V17H65.625ZM80.3906 17.0781L80.3125 15.25H80.1484C80.0859 15.8854 79.8151 16.362 79.3359 16.6797C78.862 16.9974 78.2396 17.1562 77.4688 17.1562C76.6042 17.1562 75.9349 16.9479 75.4609 16.5312C74.987 16.1146 74.75 15.526 74.75 14.7656C74.75 13.8906 75.0755 13.2188 75.7266 12.75C76.3828 12.2812 77.3073 12.0469 78.5 12.0469C79.0938 12.0469 79.6146 12.0911 80.0625 12.1797V11.7969C80.0625 11.2448 79.8672 10.8411 79.4766 10.5859C79.0911 10.3255 78.5156 10.1849 77.75 10.1641L75.7656 10.1094L75.9219 8.64062L77.5938 8.66406C78.9635 8.6849 79.9792 8.98177 80.6406 9.55469C81.3073 10.1224 81.6406 10.9531 81.6406 12.0469V15.5L83.0469 15.6719V17L80.3906 17.0781ZM80.0625 13.4531C79.7969 13.4115 79.5312 13.388 79.2656 13.3828C79.0052 13.3776 78.7396 13.375 78.4688 13.375C77.0312 13.375 76.3125 13.8125 76.3125 14.6875C76.3125 15.0521 76.4349 15.3333 76.6797 15.5312C76.9297 15.7292 77.2812 15.8281 77.7344 15.8281C78.25 15.8281 78.6797 15.7396 79.0234 15.5625C79.3724 15.3854 79.6328 15.1589 79.8047 14.8828C79.9766 14.6068 80.0625 14.3229 80.0625 14.0312V13.4531ZM84.625 17V15.5469H87.7812V10.1719H85.0938V8.71875H89.4375V15.5469H91.9844V17H84.625ZM88.5547 7.40625C88.237 7.40625 87.9635 7.29427 87.7344 7.07031C87.5104 6.84115 87.3984 6.56771 87.3984 6.25C87.3984 5.92708 87.5104 5.65365 87.7344 5.42969C87.9635 5.20573 88.237 5.09375 88.5547 5.09375C88.8776 5.09375 89.151 5.20573 89.375 5.42969C89.599 5.65365 89.7109 5.92708 89.7109 6.25C89.7109 6.56771 89.599 6.84115 89.375 7.07031C89.151 7.29427 88.8776 7.40625 88.5547 7.40625ZM106 17V7.39062H102.75V5.90625H110.875V7.39062H107.625V17H106ZM115.375 17.1562C114.505 17.1562 113.831 16.8984 113.352 16.3828C112.878 15.862 112.641 15.1302 112.641 14.1875V8.71875H114.297V14.1875C114.297 14.6615 114.432 15.0286 114.703 15.2891C114.974 15.5443 115.354 15.6719 115.844 15.6719C116.448 15.6719 116.904 15.4818 117.211 15.1016C117.518 14.7161 117.672 14.0729 117.672 13.1719V8.71875H119.328V15.5L120.469 15.6719V17L117.812 17.0781L117.695 15.4062H117.547C117.417 15.9688 117.161 16.401 116.781 16.7031C116.401 17.0052 115.932 17.1562 115.375 17.1562ZM127.266 17.0781L127.188 15.25H127.023C126.961 15.8854 126.69 16.362 126.211 16.6797C125.737 16.9974 125.115 17.1562 124.344 17.1562C123.479 17.1562 122.81 16.9479 122.336 16.5312C121.862 16.1146 121.625 15.526 121.625 14.7656C121.625 13.8906 121.951 13.2188 122.602 12.75C123.258 12.2812 124.182 12.0469 125.375 12.0469C125.969 12.0469 126.49 12.0911 126.938 12.1797V11.7969C126.938 11.2448 126.742 10.8411 126.352 10.5859C125.966 10.3255 125.391 10.1849 124.625 10.1641L122.641 10.1094L122.797 8.64062L124.469 8.66406C125.839 8.6849 126.854 8.98177 127.516 9.55469C128.182 10.1224 128.516 10.9531 128.516 12.0469V15.5L129.922 15.6719V17L127.266 17.0781ZM126.938 13.4531C126.672 13.4115 126.406 13.388 126.141 13.3828C125.88 13.3776 125.615 13.375 125.344 13.375C123.906 13.375 123.188 13.8125 123.188 14.6875C123.188 15.0521 123.31 15.3333 123.555 15.5312C123.805 15.7292 124.156 15.8281 124.609 15.8281C125.125 15.8281 125.555 15.7396 125.898 15.5625C126.247 15.3854 126.508 15.1589 126.68 14.8828C126.852 14.6068 126.938 14.3229 126.938 14.0312V13.4531ZM122.859 7.25L124.734 4.28125H126.078L127.953 7.25H126.297L125.406 5.48438L124.516 7.25H122.859ZM127.406 4.59375L128.734 1.625H130.391L128.906 4.59375H127.406ZM136.656 17V11.6094C136.656 11.1094 136.526 10.724 136.266 10.4531C136.005 10.1823 135.641 10.0469 135.172 10.0469C133.87 10.0469 133.219 10.8125 133.219 12.3438V17H131.562V8.71875H133.062L133.195 10.2188H133.375C133.469 9.11458 134.198 8.5625 135.562 8.5625C136.438 8.5625 137.115 8.82812 137.594 9.35938C138.073 9.89062 138.312 10.6406 138.312 11.6094V17H136.656ZM150.094 17V5.90625H152.781C156.167 5.90625 157.859 7.80729 157.859 11.6094C157.859 15.2031 156.167 17 152.781 17H150.094ZM151.719 15.5156H152.781C155.073 15.5156 156.219 14.2135 156.219 11.6094C156.219 8.79688 155.073 7.39062 152.781 7.39062H151.719V15.5156ZM162.25 17.1562C161.38 17.1562 160.706 16.8984 160.227 16.3828C159.753 15.862 159.516 15.1302 159.516 14.1875V8.71875H161.172V14.1875C161.172 14.6615 161.307 15.0286 161.578 15.2891C161.849 15.5443 162.229 15.6719 162.719 15.6719C163.323 15.6719 163.779 15.4818 164.086 15.1016C164.393 14.7161 164.547 14.0729 164.547 13.1719V8.71875H166.203V15.5L167.344 15.6719V17L164.688 17.0781L164.57 15.4062H164.422C164.292 15.9688 164.036 16.401 163.656 16.7031C163.276 17.0052 162.807 17.1562 162.25 17.1562ZM160.172 7.1875V6.875C160.172 5.57292 160.719 4.92188 161.812 4.92188C162.021 4.92188 162.216 4.95573 162.398 5.02344C162.581 5.08594 162.771 5.16667 162.969 5.26562C163.229 5.39583 163.451 5.5026 163.633 5.58594C163.82 5.66406 163.979 5.70312 164.109 5.70312C164.391 5.70312 164.531 5.53646 164.531 5.20312V4.5H165.875V5.125C165.875 6.375 165.385 7 164.406 7C164.26 7 164.081 6.96875 163.867 6.90625C163.654 6.84375 163.409 6.74479 163.133 6.60938C162.961 6.52083 162.789 6.4349 162.617 6.35156C162.445 6.26302 162.276 6.21875 162.109 6.21875C161.724 6.21875 161.531 6.41146 161.531 6.79688V7.1875H160.172ZM174.156 17V11.6094C174.156 11.1094 174.026 10.724 173.766 10.4531C173.505 10.1823 173.141 10.0469 172.672 10.0469C171.37 10.0469 170.719 10.8125 170.719 12.3438V17H169.062V8.71875H170.562L170.695 10.2188H170.875C170.969 9.11458 171.698 8.5625 173.062 8.5625C173.938 8.5625 174.615 8.82812 175.094 9.35938C175.573 9.89062 175.812 10.6406 175.812 11.6094V17H174.156ZM178.547 20.7344L178.469 19.2188L181.125 19.1406C181.964 19.1146 182.573 18.8828 182.953 18.4453C183.333 18.0078 183.526 17.3646 183.531 16.5156V15.5H183.375C183.323 16.0208 183.102 16.4271 182.711 16.7188C182.326 17.0104 181.815 17.1562 181.18 17.1562C180.096 17.1562 179.273 16.7995 178.711 16.0859C178.154 15.3724 177.875 14.3229 177.875 12.9375C177.875 11.5 178.154 10.4115 178.711 9.67188C179.273 8.93229 180.096 8.5625 181.18 8.5625C181.826 8.5625 182.349 8.70833 182.75 9C183.151 9.29167 183.385 9.69792 183.453 10.2188H183.555L183.688 8.71875H185.188V16.2656C185.188 17.7396 184.852 18.8281 184.18 19.5312C183.508 20.2344 182.438 20.6094 180.969 20.6562L178.547 20.7344ZM183.531 12.5781C183.531 10.8385 182.87 9.96875 181.547 9.96875C180.193 9.96875 179.516 10.9583 179.516 12.9375C179.516 14.8125 180.193 15.75 181.547 15.75C182.87 15.75 183.531 14.8802 183.531 13.1406V12.5781Z" fill="url(#paint0_linear_77_5)"/>
<defs>
<linearGradient id="paint0_linear_77_5" x1="6.15217" y1="17.3437" x2="94.4983" y2="-73.5542" gradientUnits="userSpaceOnUse">
<stop stop-color="#46AEBA"/>
<stop offset="0.5" stop-color="#4F7FEE"/>
<stop offset="1" stop-color="#43E69C"/>
</linearGradient>
</defs>
</svg>
