<svg width="181" height="35" viewBox="0 0 181 35" fill="none" xmlns="http://www.w3.org/2000/svg">
<path d="M4.33333 0.333332H6.11111V2.11111H4.33333V0.333332ZM6.11111 0.333332H7.88889V2.11111H6.11111V0.333332ZM7.88889 0.333332H9.66667V2.11111H7.88889V0.333332ZM9.66667 0.333332H11.4444V2.11111H9.66667V0.333332ZM11.4444 0.333332H13.2222V2.11111H11.4444V0.333332ZM13.2222 0.333332H15V2.11111H13.2222V0.333332ZM13.2222 2.11111H15V3.88889H13.2222V2.11111ZM15 2.11111H16.7778V3.88889H15V2.11111ZM11.4444 2.11111H13.2222V3.88889H11.4444V2.11111ZM9.66667 2.11111H11.4444V3.88889H9.66667V2.11111ZM7.88889 2.11111H9.66667V3.88889H7.88889V2.11111ZM6.11111 2.11111H7.88889V3.88889H6.11111V2.11111ZM4.33333 2.11111H6.11111V3.88889H4.33333V2.11111ZM2.55556 3.88889H4.33333V5.66667H2.55556V3.88889ZM2.55556 2.11111H4.33333V3.88889H2.55556V2.11111ZM0.777778 3.88889H2.55556V5.66667H0.777778V3.88889ZM4.33333 3.88889H6.11111V5.66667H4.33333V3.88889ZM6.11111 3.88889H7.88889V5.66667H6.11111V3.88889ZM7.88889 3.88889H9.66667V5.66667H7.88889V3.88889ZM9.66667 3.88889H11.4444V5.66667H9.66667V3.88889ZM11.4444 3.88889H13.2222V5.66667H11.4444V3.88889ZM13.2222 3.88889H15V5.66667H13.2222V3.88889ZM15 3.88889H16.7778V5.66667H15V3.88889ZM16.7778 3.88889H18.5556V5.66667H16.7778V3.88889ZM16.7778 5.66667H18.5556V7.44444H16.7778V5.66667ZM15 5.66667H16.7778V7.44444H15V5.66667ZM13.2222 5.66667H15V7.44444H13.2222V5.66667ZM11.4444 5.66667H13.2222V7.44444H11.4444V5.66667ZM13.2222 7.44444H15V9.22222H13.2222V7.44444ZM13.2222 9.22222H15V11H13.2222V9.22222ZM13.2222 11H15V12.7778H13.2222V11ZM13.2222 12.7778H15V14.5556H13.2222V12.7778ZM13.2222 14.5556H15V16.3333H13.2222V14.5556ZM15 12.7778H16.7778V14.5556H15V12.7778ZM16.7778 12.7778H18.5556V14.5556H16.7778V12.7778ZM16.7778 11H18.5556V12.7778H16.7778V11ZM16.7778 9.22222H18.5556V11H16.7778V9.22222ZM16.7778 7.44444H18.5556V9.22222H16.7778V7.44444ZM15 7.44444H16.7778V9.22222H15V7.44444ZM15 9.22222H16.7778V11H15V9.22222ZM15 11H16.7778V12.7778H15V11ZM15 14.5556H16.7778V16.3333H15V14.5556ZM15 16.3333H16.7778V18.1111H15V16.3333ZM16.7778 16.3333H18.5556V18.1111H16.7778V16.3333ZM16.7778 14.5556H18.5556V16.3333H16.7778V14.5556ZM16.7778 18.1111H18.5556V19.8889H16.7778V18.1111ZM16.7778 19.8889H18.5556V21.6667H16.7778V19.8889ZM16.7778 21.6667H18.5556V23.4444H16.7778V21.6667ZM15 21.6667H16.7778V23.4444H15V21.6667ZM15 19.8889H16.7778V21.6667H15V19.8889ZM15 18.1111H16.7778V19.8889H15V18.1111ZM13.2222 16.3333H15V18.1111H13.2222V16.3333ZM13.2222 18.1111H15V19.8889H13.2222V18.1111ZM13.2222 19.8889H15V21.6667H13.2222V19.8889ZM11.4444 19.8889H13.2222V21.6667H11.4444V19.8889ZM13.2222 21.6667H15V23.4444H13.2222V21.6667ZM15 23.4444H16.7778V25.2222H15V23.4444ZM13.2222 23.4444H15V25.2222H13.2222V23.4444ZM11.4444 21.6667H13.2222V23.4444H11.4444V21.6667ZM11.4444 23.4444H13.2222V25.2222H11.4444V23.4444ZM13.2222 25.2222H15V27H13.2222V25.2222ZM11.4444 25.2222H13.2222V27H11.4444V25.2222ZM9.66667 25.2222H11.4444V27H9.66667V25.2222ZM7.88889 25.2222H9.66667V27H7.88889V25.2222ZM6.11111 25.2222H7.88889V27H6.11111V25.2222ZM4.33333 25.2222H6.11111V27H4.33333V25.2222ZM4.33333 23.4444H6.11111V25.2222H4.33333V23.4444ZM6.11111 23.4444H7.88889V25.2222H6.11111V23.4444ZM6.11111 21.6667H7.88889V23.4444H6.11111V21.6667ZM7.88889 21.6667H9.66667V23.4444H7.88889V21.6667ZM9.66667 21.6667H11.4444V23.4444H9.66667V21.6667ZM9.66667 23.4444H11.4444V25.2222H9.66667V23.4444ZM7.88889 23.4444H9.66667V25.2222H7.88889V23.4444ZM2.55556 23.4444H4.33333V25.2222H2.55556V23.4444ZM4.33333 21.6667H6.11111V23.4444H4.33333V21.6667ZM4.33333 19.8889H6.11111V21.6667H4.33333V19.8889ZM2.55556 19.8889H4.33333V21.6667H2.55556V19.8889ZM2.55556 21.6667H4.33333V23.4444H2.55556V21.6667ZM0.777778 21.6667H2.55556V23.4444H0.777778V21.6667ZM0.777778 19.8889H2.55556V21.6667H0.777778V19.8889ZM0.777778 18.1111H2.55556V19.8889H0.777778V18.1111ZM0.777778 16.3333H2.55556V18.1111H0.777778V16.3333ZM0.777778 14.5556H2.55556V16.3333H0.777778V14.5556ZM0.777778 12.7778H2.55556V14.5556H0.777778V12.7778ZM0.777778 11H2.55556V12.7778H0.777778V11ZM0.777778 9.22222H2.55556V11H0.777778V9.22222ZM0.777778 7.44444H2.55556V9.22222H0.777778V7.44444ZM0.777778 5.66667H2.55556V7.44444H0.777778V5.66667ZM2.55556 5.66667H4.33333V7.44444H2.55556V5.66667ZM4.33333 5.66667H6.11111V7.44444H4.33333V5.66667ZM4.33333 7.44444H6.11111V9.22222H4.33333V7.44444ZM4.33333 9.22222H6.11111V11H4.33333V9.22222ZM4.33333 11H6.11111V12.7778H4.33333V11ZM4.33333 12.7778H6.11111V14.5556H4.33333V12.7778ZM4.33333 14.5556H6.11111V16.3333H4.33333V14.5556ZM4.33333 16.3333H6.11111V18.1111H4.33333V16.3333ZM4.33333 18.1111H6.11111V19.8889H4.33333V18.1111ZM2.55556 18.1111H4.33333V19.8889H2.55556V18.1111ZM2.55556 16.3333H4.33333V18.1111H2.55556V16.3333ZM2.55556 14.5556H4.33333V16.3333H2.55556V14.5556ZM2.55556 12.7778H4.33333V14.5556H2.55556V12.7778ZM2.55556 11H4.33333V12.7778H2.55556V11ZM2.55556 9.22222H4.33333V11H2.55556V9.22222ZM2.55556 7.44444H4.33333V9.22222H2.55556V7.44444ZM0.777778 23.4444H2.55556V25.2222H0.777778V23.4444ZM0.777778 25.2222H2.55556V27H0.777778V25.2222ZM2.55556 25.2222H4.33333V27H2.55556V25.2222ZM2.55556 0.333332H4.33333V2.11111H2.55556V0.333332ZM0.777778 0.333332H2.55556V2.11111H0.777778V0.333332ZM0.777778 2.11111H2.55556V3.88889H0.777778V2.11111ZM22.1059 7.44444H23.8837V9.22222H22.1059V7.44444ZM23.8837 7.44444H25.6615V9.22222H23.8837V7.44444ZM25.6615 7.44444H27.4392V9.22222H25.6615V7.44444ZM25.6615 9.22222H27.4392V11H25.6615V9.22222ZM25.6615 11H27.4392V12.7778H25.6615V11ZM25.6615 12.7778H27.4392V14.5556H25.6615V12.7778ZM25.6615 14.5556H27.4392V16.3333H25.6615V14.5556ZM25.6615 16.3333H27.4392V18.1111H25.6615V16.3333ZM23.8837 16.3333H25.6615V18.1111H23.8837V16.3333ZM23.8837 14.5556H25.6615V16.3333H23.8837V14.5556ZM23.8837 12.7778H25.6615V14.5556H23.8837V12.7778ZM22.1059 11H23.8837V12.7778H22.1059V11ZM22.1059 9.22222H23.8837V11H22.1059V9.22222ZM23.8837 11H25.6615V12.7778H23.8837V11ZM23.8837 9.22222H25.6615V11H23.8837V9.22222ZM22.1059 12.7778H23.8837V14.5556H22.1059V12.7778ZM22.1059 14.5556H23.8837V16.3333H22.1059V14.5556ZM22.1059 16.3333H23.8837V18.1111H22.1059V16.3333ZM22.1059 18.1111H23.8837V19.8889H22.1059V18.1111ZM23.8837 18.1111H25.6615V19.8889H23.8837V18.1111ZM25.6615 18.1111H27.4392V19.8889H25.6615V18.1111ZM25.6615 19.8889H27.4392V21.6667H25.6615V19.8889ZM25.6615 21.6667H27.4392V23.4444H25.6615V21.6667ZM23.8837 21.6667H25.6615V23.4444H23.8837V21.6667ZM23.8837 19.8889H25.6615V21.6667H23.8837V19.8889ZM22.1059 19.8889H23.8837V21.6667H22.1059V19.8889ZM22.1059 21.6667H23.8837V23.4444H22.1059V21.6667ZM23.8837 23.4444H25.6615V25.2222H23.8837V23.4444ZM25.6615 23.4444H27.4392V25.2222H25.6615V23.4444ZM27.4392 23.4444H29.217V25.2222H27.4392V23.4444ZM27.4392 21.6667H29.217V23.4444H27.4392V21.6667ZM25.6615 25.2222H27.4392V27H25.6615V25.2222ZM27.4392 25.2222H29.217V27H27.4392V25.2222ZM29.217 25.2222H30.9948V27H29.217V25.2222ZM29.217 23.4444H30.9948V25.2222H29.217V23.4444ZM29.217 21.6667H30.9948V23.4444H29.217V21.6667ZM30.9948 23.4444H32.7726V25.2222H30.9948V23.4444ZM30.9948 25.2222H32.7726V27H30.9948V25.2222ZM38.1059 7.44444H39.8837V9.22222H38.1059V7.44444ZM38.1059 9.22222H39.8837V11H38.1059V9.22222ZM38.1059 11H39.8837V12.7778H38.1059V11ZM38.1059 12.7778H39.8837V14.5556H38.1059V12.7778ZM38.1059 14.5556H39.8837V16.3333H38.1059V14.5556ZM38.1059 16.3333H39.8837V18.1111H38.1059V16.3333ZM38.1059 18.1111H39.8837V19.8889H38.1059V18.1111ZM38.1059 19.8889H39.8837V21.6667H38.1059V19.8889ZM38.1059 21.6667H39.8837V23.4444H38.1059V21.6667ZM36.3281 21.6667H38.1059V23.4444H36.3281V21.6667ZM34.5503 21.6667H36.3281V23.4444H34.5503V21.6667ZM34.5503 23.4444H36.3281V25.2222H34.5503V23.4444ZM32.7726 23.4444H34.5503V25.2222H32.7726V23.4444ZM36.3281 23.4444H38.1059V25.2222H36.3281V23.4444ZM38.1059 23.4444H39.8837V25.2222H38.1059V23.4444ZM32.7726 21.6667H34.5503V23.4444H32.7726V21.6667ZM30.9948 21.6667H32.7726V23.4444H30.9948V21.6667ZM32.7726 19.8889H34.5503V21.6667H32.7726V19.8889ZM34.5503 19.8889H36.3281V21.6667H34.5503V19.8889ZM36.3281 19.8889H38.1059V21.6667H36.3281V19.8889ZM36.3281 18.1111H38.1059V19.8889H36.3281V18.1111ZM36.3281 16.3333H38.1059V18.1111H36.3281V16.3333ZM36.3281 14.5556H38.1059V16.3333H36.3281V14.5556ZM36.3281 12.7778H38.1059V14.5556H36.3281V12.7778ZM36.3281 11H38.1059V12.7778H36.3281V11ZM36.3281 9.22222H38.1059V11H36.3281V9.22222ZM36.3281 7.44444H38.1059V9.22222H36.3281V7.44444ZM34.5503 9.22222H36.3281V11H34.5503V9.22222ZM34.5503 11H36.3281V12.7778H34.5503V11ZM34.5503 12.7778H36.3281V14.5556H34.5503V12.7778ZM34.5503 14.5556H36.3281V16.3333H34.5503V14.5556ZM34.5503 16.3333H36.3281V18.1111H34.5503V16.3333ZM34.5503 18.1111H36.3281V19.8889H34.5503V18.1111ZM34.5503 7.44444H36.3281V9.22222H34.5503V7.44444ZM38.1059 25.2222H39.8837V27H38.1059V25.2222ZM36.3281 25.2222H38.1059V27H36.3281V25.2222ZM34.5503 25.2222H36.3281V27H34.5503V25.2222ZM46.9896 7.44444H48.7674V9.22222H46.9896V7.44444ZM45.2118 9.22222H46.9896V11H45.2118V9.22222ZM45.2118 11H46.9896V12.7778H45.2118V11ZM43.434 9.22222H45.2118V11H43.434V9.22222ZM43.434 7.44444H45.2118V9.22222H43.434V7.44444ZM45.2118 7.44444H46.9896V9.22222H45.2118V7.44444ZM45.2118 12.7778H46.9896V14.5556H45.2118V12.7778ZM43.434 12.7778H45.2118V14.5556H43.434V12.7778ZM43.434 14.5556H45.2118V16.3333H43.434V14.5556ZM43.434 11H45.2118V12.7778H43.434V11ZM43.434 16.3333H45.2118V18.1111H43.434V16.3333ZM43.434 18.1111H45.2118V19.8889H43.434V18.1111ZM43.434 19.8889H45.2118V21.6667H43.434V19.8889ZM43.434 21.6667H45.2118V23.4444H43.434V21.6667ZM43.434 23.4444H45.2118V25.2222H43.434V23.4444ZM45.2118 23.4444H46.9896V25.2222H45.2118V23.4444ZM46.9896 23.4444H48.7674V25.2222H46.9896V23.4444ZM46.9896 25.2222H48.7674V27H46.9896V25.2222ZM45.2118 25.2222H46.9896V27H45.2118V25.2222ZM43.434 25.2222H45.2118V27H43.434V25.2222ZM46.9896 21.6667H48.7674V23.4444H46.9896V21.6667ZM46.9896 19.8889H48.7674V21.6667H46.9896V19.8889ZM46.9896 18.1111H48.7674V19.8889H46.9896V18.1111ZM46.9896 16.3333H48.7674V18.1111H46.9896V16.3333ZM46.9896 14.5556H48.7674V16.3333H46.9896V14.5556ZM46.9896 12.7778H48.7674V14.5556H46.9896V12.7778ZM46.9896 11H48.7674V12.7778H46.9896V11ZM46.9896 9.22222H48.7674V11H46.9896V9.22222ZM45.2118 14.5556H46.9896V16.3333H45.2118V14.5556ZM45.2118 18.1111H46.9896V19.8889H45.2118V18.1111ZM45.2118 19.8889H46.9896V21.6667H45.2118V19.8889ZM45.2118 21.6667H46.9896V23.4444H45.2118V21.6667ZM45.2118 16.3333H46.9896V18.1111H45.2118V16.3333ZM55.8785 25.2222H57.6563V27H55.8785V25.2222ZM57.6563 25.2222H59.434V27H57.6563V25.2222ZM57.6563 23.4444H59.434V25.2222H57.6563V23.4444ZM57.6563 21.6667H59.434V23.4444H57.6563V21.6667ZM57.6563 19.8889H59.434V21.6667H57.6563V19.8889ZM59.434 19.8889H61.2118V21.6667H59.434V19.8889ZM59.434 18.1111H61.2118V19.8889H59.434V18.1111ZM59.434 21.6667H61.2118V23.4444H59.434V21.6667ZM59.434 23.4444H61.2118V25.2222H59.434V23.4444ZM59.434 25.2222H61.2118V27H59.434V25.2222ZM55.8785 23.4444H57.6563V25.2222H55.8785V23.4444ZM55.8785 21.6667H57.6563V23.4444H55.8785V21.6667ZM55.8785 19.8889H57.6563V21.6667H55.8785V19.8889ZM55.8785 18.1111H57.6563V19.8889H55.8785V18.1111ZM55.8785 16.3333H57.6563V18.1111H55.8785V16.3333ZM55.8785 14.5556H57.6563V16.3333H55.8785V14.5556ZM55.8785 12.7778H57.6563V14.5556H55.8785V12.7778ZM55.8785 11H57.6563V12.7778H55.8785V11ZM55.8785 9.22222H57.6563V11H55.8785V9.22222ZM54.1007 9.22222H55.8785V11H54.1007V9.22222ZM52.3229 9.22222H54.1007V11H52.3229V9.22222ZM57.6563 11H59.434V12.7778H57.6563V11ZM57.6563 12.7778H59.434V14.5556H57.6563V12.7778ZM57.6563 14.5556H59.434V16.3333H57.6563V14.5556ZM57.6563 16.3333H59.434V18.1111H57.6563V16.3333ZM57.6563 18.1111H59.434V19.8889H57.6563V18.1111ZM59.434 16.3333H61.2118V18.1111H59.434V16.3333ZM59.434 14.5556H61.2118V16.3333H59.434V14.5556ZM59.434 12.7778H61.2118V14.5556H59.434V12.7778ZM59.434 11H61.2118V12.7778H59.434V11ZM57.6563 9.22222H59.434V11H57.6563V9.22222ZM55.8785 7.44444H57.6563V9.22222H55.8785V7.44444ZM54.1007 7.44444H55.8785V9.22222H54.1007V7.44444ZM52.3229 7.44444H54.1007V9.22222H52.3229V7.44444ZM50.5451 7.44444H52.3229V9.22222H50.5451V7.44444ZM50.5451 9.22222H52.3229V11H50.5451V9.22222ZM48.7674 9.22222H50.5451V11H48.7674V9.22222ZM48.7674 11H50.5451V12.7778H48.7674V11ZM50.5451 11H52.3229V12.7778H50.5451V11ZM52.3229 11H54.1007V12.7778H52.3229V11ZM54.1007 11H55.8785V12.7778H54.1007V11ZM48.7674 12.7778H50.5451V14.5556H48.7674V12.7778ZM80.7622 7.44444H82.5399V9.22222H80.7622V7.44444ZM78.9844 7.44444H80.7622V9.22222H78.9844V7.44444ZM75.4288 7.44444H77.2066V9.22222H75.4288V7.44444ZM73.651 7.44444H75.4288V9.22222H73.651V7.44444ZM71.8733 7.44444H73.651V9.22222H71.8733V7.44444ZM70.0955 7.44444H71.8733V9.22222H70.0955V7.44444ZM68.3177 7.44444H70.0955V9.22222H68.3177V7.44444ZM68.3177 9.22222H70.0955V11H68.3177V9.22222ZM70.0955 9.22222H71.8733V11H70.0955V9.22222ZM77.2066 9.22222H78.9844V11H77.2066V9.22222ZM77.2066 7.44444H78.9844V9.22222H77.2066V7.44444ZM73.651 9.22222H75.4288V11H73.651V9.22222ZM71.8733 9.22222H73.651V11H71.8733V9.22222ZM75.4288 9.22222H77.2066V11H75.4288V9.22222ZM78.9844 9.22222H80.7622V11H78.9844V9.22222ZM80.7622 9.22222H82.5399V11H80.7622V9.22222ZM71.8733 11H73.651V12.7778H71.8733V11ZM73.651 11H75.4288V12.7778H73.651V11ZM75.4288 11H77.2066V12.7778H75.4288V11ZM77.2066 11H78.9844V12.7778H77.2066V11ZM78.9844 11H80.7622V12.7778H78.9844V11ZM80.7622 11H82.5399V12.7778H80.7622V11ZM70.0955 11H71.8733V12.7778H70.0955V11ZM68.3177 11H70.0955V12.7778H68.3177V11ZM66.5399 9.22222H68.3177V11H66.5399V9.22222ZM66.5399 11H68.3177V12.7778H66.5399V11ZM64.7622 11H66.5399V12.7778H64.7622V11ZM64.7622 12.7778H66.5399V14.5556H64.7622V12.7778ZM64.7622 14.5556H66.5399V16.3333H64.7622V14.5556ZM66.5399 14.5556H68.3177V16.3333H66.5399V14.5556ZM68.3177 14.5556H70.0955V16.3333H68.3177V14.5556ZM68.3177 12.7778H70.0955V14.5556H68.3177V12.7778ZM66.5399 12.7778H68.3177V14.5556H66.5399V12.7778ZM64.7622 16.3333H66.5399V18.1111H64.7622V16.3333ZM64.7622 18.1111H66.5399V19.8889H64.7622V18.1111ZM64.7622 19.8889H66.5399V21.6667H64.7622V19.8889ZM66.5399 19.8889H68.3177V21.6667H66.5399V19.8889ZM68.3177 19.8889H70.0955V21.6667H68.3177V19.8889ZM68.3177 18.1111H70.0955V19.8889H68.3177V18.1111ZM68.3177 16.3333H70.0955V18.1111H68.3177V16.3333ZM66.5399 16.3333H68.3177V18.1111H66.5399V16.3333ZM66.5399 18.1111H68.3177V19.8889H66.5399V18.1111ZM66.5399 21.6667H68.3177V23.4444H66.5399V21.6667ZM68.3177 21.6667H70.0955V23.4444H68.3177V21.6667ZM70.0955 21.6667H71.8733V23.4444H70.0955V21.6667ZM70.0955 19.8889H71.8733V21.6667H70.0955V19.8889ZM68.3177 23.4444H70.0955V25.2222H68.3177V23.4444ZM70.0955 23.4444H71.8733V25.2222H70.0955V23.4444ZM71.8733 23.4444H73.651V25.2222H71.8733V23.4444ZM71.8733 21.6667H73.651V23.4444H71.8733V21.6667ZM73.651 21.6667H75.4288V23.4444H73.651V21.6667ZM73.651 23.4444H75.4288V25.2222H73.651V23.4444ZM71.8733 19.8889H73.651V21.6667H71.8733V19.8889ZM73.651 19.8889H75.4288V21.6667H73.651V19.8889ZM75.4288 19.8889H77.2066V21.6667H75.4288V19.8889ZM77.2066 19.8889H78.9844V21.6667H77.2066V19.8889ZM78.9844 19.8889H80.7622V21.6667H78.9844V19.8889ZM77.2066 21.6667H78.9844V23.4444H77.2066V21.6667ZM77.2066 23.4444H78.9844V25.2222H77.2066V23.4444ZM75.4288 21.6667H77.2066V23.4444H75.4288V21.6667ZM77.2066 18.1111H78.9844V19.8889H77.2066V18.1111ZM77.2066 16.3333H78.9844V18.1111H77.2066V16.3333ZM77.2066 14.5556H78.9844V16.3333H77.2066V14.5556ZM77.2066 12.7778H78.9844V14.5556H77.2066V12.7778ZM78.9844 12.7778H80.7622V14.5556H78.9844V12.7778ZM80.7622 12.7778H82.5399V14.5556H80.7622V12.7778ZM80.7622 14.5556H82.5399V16.3333H80.7622V14.5556ZM80.7622 16.3333H82.5399V18.1111H80.7622V16.3333ZM80.7622 18.1111H82.5399V19.8889H80.7622V18.1111ZM80.7622 19.8889H82.5399V21.6667H80.7622V19.8889ZM78.9844 21.6667H80.7622V23.4444H78.9844V21.6667ZM78.9844 18.1111H80.7622V19.8889H78.9844V18.1111ZM78.9844 16.3333H80.7622V18.1111H78.9844V16.3333ZM78.9844 14.5556H80.7622V16.3333H78.9844V14.5556ZM78.9844 23.4444H80.7622V25.2222H78.9844V23.4444ZM80.7622 23.4444H82.5399V25.2222H80.7622V23.4444ZM80.7622 21.6667H82.5399V23.4444H80.7622V21.6667ZM77.2066 25.2222H78.9844V27H77.2066V25.2222ZM77.2066 27H78.9844V28.7778H77.2066V27ZM77.2066 28.7778H78.9844V30.5556H77.2066V28.7778ZM78.9844 28.7778H80.7622V30.5556H78.9844V28.7778ZM80.7622 28.7778H82.5399V30.5556H80.7622V28.7778ZM80.7622 27H82.5399V28.7778H80.7622V27ZM80.7622 25.2222H82.5399V27H80.7622V25.2222ZM78.9844 25.2222H80.7622V27H78.9844V25.2222ZM78.9844 27H80.7622V28.7778H78.9844V27ZM78.9844 30.5556H80.7622V32.3333H78.9844V30.5556ZM77.2066 30.5556H78.9844V32.3333H77.2066V30.5556ZM75.4288 30.5556H77.2066V32.3333H75.4288V30.5556ZM75.4288 28.7778H77.2066V30.5556H75.4288V28.7778ZM77.2066 32.3333H78.9844V34.1111H77.2066V32.3333ZM75.4288 32.3333H77.2066V34.1111H75.4288V32.3333ZM73.651 32.3333H75.4288V34.1111H73.651V32.3333ZM73.651 30.5556H75.4288V32.3333H73.651V30.5556ZM71.8733 30.5556H73.651V32.3333H71.8733V30.5556ZM70.0955 30.5556H71.8733V32.3333H70.0955V30.5556ZM68.3177 32.3333H70.0955V34.1111H68.3177V32.3333ZM70.0955 32.3333H71.8733V34.1111H70.0955V32.3333ZM71.8733 32.3333H73.651V34.1111H71.8733V32.3333ZM68.3177 30.5556H70.0955V32.3333H68.3177V30.5556ZM66.5399 30.5556H68.3177V32.3333H66.5399V30.5556ZM68.3177 28.7778H70.0955V30.5556H68.3177V28.7778ZM70.0955 28.7778H71.8733V30.5556H70.0955V28.7778ZM66.5399 28.7778H68.3177V30.5556H66.5399V28.7778ZM68.3177 27H70.0955V28.7778H68.3177V27ZM66.5399 27H68.3177V28.7778H66.5399V27ZM64.7622 27H66.5399V28.7778H64.7622V27ZM64.7622 28.7778H66.5399V30.5556H64.7622V28.7778ZM89.6458 0.333332H91.4236V2.11111H89.6458V0.333332ZM91.4236 0.333332H93.2014V2.11111H91.4236V0.333332ZM93.2014 0.333332H94.9792V2.11111H93.2014V0.333332ZM94.9792 0.333332H96.7569V2.11111H94.9792V0.333332ZM96.7569 0.333332H98.5347V2.11111H96.7569V0.333332ZM98.5347 0.333332H100.313V2.11111H98.5347V0.333332ZM98.5347 2.11111H100.313V3.88889H98.5347V2.11111ZM100.313 2.11111H102.09V3.88889H100.313V2.11111ZM96.7569 2.11111H98.5347V3.88889H96.7569V2.11111ZM94.9792 2.11111H96.7569V3.88889H94.9792V2.11111ZM93.2014 2.11111H94.9792V3.88889H93.2014V2.11111ZM91.4236 2.11111H93.2014V3.88889H91.4236V2.11111ZM89.6458 2.11111H91.4236V3.88889H89.6458V2.11111ZM87.8681 3.88889H89.6458V5.66667H87.8681V3.88889ZM87.8681 2.11111H89.6458V3.88889H87.8681V2.11111ZM86.0903 3.88889H87.8681V5.66667H86.0903V3.88889ZM89.6458 3.88889H91.4236V5.66667H89.6458V3.88889ZM91.4236 3.88889H93.2014V5.66667H91.4236V3.88889ZM93.2014 3.88889H94.9792V5.66667H93.2014V3.88889ZM94.9792 3.88889H96.7569V5.66667H94.9792V3.88889ZM96.7569 3.88889H98.5347V5.66667H96.7569V3.88889ZM98.5347 3.88889H100.313V5.66667H98.5347V3.88889ZM100.313 3.88889H102.09V5.66667H100.313V3.88889ZM102.09 3.88889H103.868V5.66667H102.09V3.88889ZM102.09 5.66667H103.868V7.44444H102.09V5.66667ZM100.313 5.66667H102.09V7.44444H100.313V5.66667ZM98.5347 5.66667H100.313V7.44444H98.5347V5.66667ZM96.7569 5.66667H98.5347V7.44444H96.7569V5.66667ZM98.5347 7.44444H100.313V9.22222H98.5347V7.44444ZM98.5347 9.22222H100.313V11H98.5347V9.22222ZM98.5347 11H100.313V12.7778H98.5347V11ZM98.5347 12.7778H100.313V14.5556H98.5347V12.7778ZM98.5347 14.5556H100.313V16.3333H98.5347V14.5556ZM100.313 12.7778H102.09V14.5556H100.313V12.7778ZM102.09 12.7778H103.868V14.5556H102.09V12.7778ZM102.09 11H103.868V12.7778H102.09V11ZM102.09 9.22222H103.868V11H102.09V9.22222ZM102.09 7.44444H103.868V9.22222H102.09V7.44444ZM100.313 7.44444H102.09V9.22222H100.313V7.44444ZM100.313 9.22222H102.09V11H100.313V9.22222ZM100.313 11H102.09V12.7778H100.313V11ZM100.313 14.5556H102.09V16.3333H100.313V14.5556ZM100.313 16.3333H102.09V18.1111H100.313V16.3333ZM102.09 16.3333H103.868V18.1111H102.09V16.3333ZM102.09 14.5556H103.868V16.3333H102.09V14.5556ZM102.09 18.1111H103.868V19.8889H102.09V18.1111ZM102.09 19.8889H103.868V21.6667H102.09V19.8889ZM102.09 21.6667H103.868V23.4444H102.09V21.6667ZM100.313 21.6667H102.09V23.4444H100.313V21.6667ZM100.313 19.8889H102.09V21.6667H100.313V19.8889ZM100.313 18.1111H102.09V19.8889H100.313V18.1111ZM98.5347 16.3333H100.313V18.1111H98.5347V16.3333ZM98.5347 18.1111H100.313V19.8889H98.5347V18.1111ZM98.5347 19.8889H100.313V21.6667H98.5347V19.8889ZM96.7569 19.8889H98.5347V21.6667H96.7569V19.8889ZM98.5347 21.6667H100.313V23.4444H98.5347V21.6667ZM100.313 23.4444H102.09V25.2222H100.313V23.4444ZM98.5347 23.4444H100.313V25.2222H98.5347V23.4444ZM96.7569 21.6667H98.5347V23.4444H96.7569V21.6667ZM96.7569 23.4444H98.5347V25.2222H96.7569V23.4444ZM98.5347 25.2222H100.313V27H98.5347V25.2222ZM96.7569 25.2222H98.5347V27H96.7569V25.2222ZM94.9792 25.2222H96.7569V27H94.9792V25.2222ZM93.2014 25.2222H94.9792V27H93.2014V25.2222ZM91.4236 25.2222H93.2014V27H91.4236V25.2222ZM89.6458 25.2222H91.4236V27H89.6458V25.2222ZM89.6458 23.4444H91.4236V25.2222H89.6458V23.4444ZM91.4236 23.4444H93.2014V25.2222H91.4236V23.4444ZM91.4236 21.6667H93.2014V23.4444H91.4236V21.6667ZM93.2014 21.6667H94.9792V23.4444H93.2014V21.6667ZM94.9792 21.6667H96.7569V23.4444H94.9792V21.6667ZM94.9792 23.4444H96.7569V25.2222H94.9792V23.4444ZM93.2014 23.4444H94.9792V25.2222H93.2014V23.4444ZM87.8681 23.4444H89.6458V25.2222H87.8681V23.4444ZM89.6458 21.6667H91.4236V23.4444H89.6458V21.6667ZM89.6458 19.8889H91.4236V21.6667H89.6458V19.8889ZM87.8681 19.8889H89.6458V21.6667H87.8681V19.8889ZM87.8681 21.6667H89.6458V23.4444H87.8681V21.6667ZM86.0903 21.6667H87.8681V23.4444H86.0903V21.6667ZM86.0903 19.8889H87.8681V21.6667H86.0903V19.8889ZM86.0903 18.1111H87.8681V19.8889H86.0903V18.1111ZM86.0903 16.3333H87.8681V18.1111H86.0903V16.3333ZM86.0903 14.5556H87.8681V16.3333H86.0903V14.5556ZM86.0903 12.7778H87.8681V14.5556H86.0903V12.7778ZM86.0903 11H87.8681V12.7778H86.0903V11ZM86.0903 9.22222H87.8681V11H86.0903V9.22222ZM86.0903 7.44444H87.8681V9.22222H86.0903V7.44444ZM86.0903 5.66667H87.8681V7.44444H86.0903V5.66667ZM87.8681 5.66667H89.6458V7.44444H87.8681V5.66667ZM89.6458 5.66667H91.4236V7.44444H89.6458V5.66667ZM89.6458 7.44444H91.4236V9.22222H89.6458V7.44444ZM89.6458 9.22222H91.4236V11H89.6458V9.22222ZM89.6458 11H91.4236V12.7778H89.6458V11ZM89.6458 12.7778H91.4236V14.5556H89.6458V12.7778ZM89.6458 14.5556H91.4236V16.3333H89.6458V14.5556ZM89.6458 16.3333H91.4236V18.1111H89.6458V16.3333ZM89.6458 18.1111H91.4236V19.8889H89.6458V18.1111ZM87.8681 18.1111H89.6458V19.8889H87.8681V18.1111ZM87.8681 16.3333H89.6458V18.1111H87.8681V16.3333ZM87.8681 14.5556H89.6458V16.3333H87.8681V14.5556ZM87.8681 12.7778H89.6458V14.5556H87.8681V12.7778ZM87.8681 11H89.6458V12.7778H87.8681V11ZM87.8681 9.22222H89.6458V11H87.8681V9.22222ZM87.8681 7.44444H89.6458V9.22222H87.8681V7.44444ZM86.0903 23.4444H87.8681V25.2222H86.0903V23.4444ZM86.0903 25.2222H87.8681V27H86.0903V25.2222ZM87.8681 25.2222H89.6458V27H87.8681V25.2222ZM87.8681 0.333332H89.6458V2.11111H87.8681V0.333332ZM86.0903 0.333332H87.8681V2.11111H86.0903V0.333332ZM86.0903 2.11111H87.8681V3.88889H86.0903V2.11111ZM110.974 7.44444H112.752V9.22222H110.974V7.44444ZM112.752 7.44444H114.53V9.22222H112.752V7.44444ZM114.53 7.44444H116.307V9.22222H114.53V7.44444ZM116.307 7.44444H118.085V9.22222H116.307V7.44444ZM118.085 7.44444H119.863V9.22222H118.085V7.44444ZM119.863 7.44444H121.641V9.22222H119.863V7.44444ZM121.641 9.22222H123.418V11H121.641V9.22222ZM119.863 9.22222H121.641V11H119.863V9.22222ZM118.085 9.22222H119.863V11H118.085V9.22222ZM116.307 9.22222H118.085V11H116.307V9.22222ZM114.53 9.22222H116.307V11H114.53V9.22222ZM112.752 9.22222H114.53V11H112.752V9.22222ZM110.974 9.22222H112.752V11H110.974V9.22222ZM109.196 9.22222H110.974V11H109.196V9.22222ZM109.196 11H110.974V12.7778H109.196V11ZM110.974 11H112.752V12.7778H110.974V11ZM107.418 11H109.196V12.7778H107.418V11ZM107.418 12.7778H109.196V14.5556H107.418V12.7778ZM107.418 14.5556H109.196V16.3333H107.418V14.5556ZM109.196 14.5556H110.974V16.3333H109.196V14.5556ZM110.974 14.5556H112.752V16.3333H110.974V14.5556ZM110.974 12.7778H112.752V14.5556H110.974V12.7778ZM109.196 12.7778H110.974V14.5556H109.196V12.7778ZM109.196 16.3333H110.974V18.1111H109.196V16.3333ZM109.196 18.1111H110.974V19.8889H109.196V18.1111ZM109.196 19.8889H110.974V21.6667H109.196V19.8889ZM107.418 19.8889H109.196V21.6667H107.418V19.8889ZM107.418 21.6667H109.196V23.4444H107.418V21.6667ZM107.418 18.1111H109.196V19.8889H107.418V18.1111ZM107.418 16.3333H109.196V18.1111H107.418V16.3333ZM110.974 16.3333H112.752V18.1111H110.974V16.3333ZM110.974 18.1111H112.752V19.8889H110.974V18.1111ZM110.974 19.8889H112.752V21.6667H110.974V19.8889ZM110.974 21.6667H112.752V23.4444H110.974V21.6667ZM109.196 21.6667H110.974V23.4444H109.196V21.6667ZM109.196 23.4444H110.974V25.2222H109.196V23.4444ZM110.974 23.4444H112.752V25.2222H110.974V23.4444ZM112.752 23.4444H114.53V25.2222H112.752V23.4444ZM112.752 21.6667H114.53V23.4444H112.752V21.6667ZM110.974 25.2222H112.752V27H110.974V25.2222ZM112.752 25.2222H114.53V27H112.752V25.2222ZM114.53 25.2222H116.307V27H114.53V25.2222ZM116.307 25.2222H118.085V27H116.307V25.2222ZM118.085 25.2222H119.863V27H118.085V25.2222ZM119.863 25.2222H121.641V27H119.863V25.2222ZM118.085 23.4444H119.863V25.2222H118.085V23.4444ZM116.307 23.4444H118.085V25.2222H116.307V23.4444ZM114.53 23.4444H116.307V25.2222H114.53V23.4444ZM119.863 23.4444H121.641V25.2222H119.863V23.4444ZM121.641 23.4444H123.418V25.2222H121.641V23.4444ZM119.863 21.6667H121.641V23.4444H119.863V21.6667ZM118.085 21.6667H119.863V23.4444H118.085V21.6667ZM121.641 21.6667H123.418V23.4444H121.641V21.6667ZM123.418 21.6667H125.196V23.4444H123.418V21.6667ZM121.641 12.7778H123.418V14.5556H121.641V12.7778ZM123.418 12.7778H125.196V14.5556H123.418V12.7778ZM123.418 11H125.196V12.7778H123.418V11ZM119.863 12.7778H121.641V14.5556H119.863V12.7778ZM119.863 11H121.641V12.7778H119.863V11ZM121.641 11H123.418V12.7778H121.641V11ZM114.53 21.6667H116.307V23.4444H114.53V21.6667ZM116.307 21.6667H118.085V23.4444H116.307V21.6667ZM123.418 14.5556H125.196V16.3333H123.418V14.5556ZM121.641 14.5556H123.418V16.3333H121.641V14.5556ZM119.863 14.5556H121.641V16.3333H119.863V14.5556ZM114.53 16.3333H116.307V18.1111H114.53V16.3333ZM116.307 16.3333H118.085V18.1111H116.307V16.3333ZM118.085 16.3333H119.863V18.1111H118.085V16.3333ZM119.863 16.3333H121.641V18.1111H119.863V16.3333ZM121.641 16.3333H123.418V18.1111H121.641V16.3333ZM123.418 16.3333H125.196V18.1111H123.418V16.3333ZM112.752 16.3333H114.53V18.1111H112.752V16.3333ZM112.752 11H114.53V12.7778H112.752V11ZM114.53 11H116.307V12.7778H114.53V11ZM116.307 11H118.085V12.7778H116.307V11ZM118.085 11H119.863V12.7778H118.085V11ZM123.418 18.1111H125.196V19.8889H123.418V18.1111ZM121.641 18.1111H123.418V19.8889H121.641V18.1111ZM118.085 18.1111H119.863V19.8889H118.085V18.1111ZM116.307 18.1111H118.085V19.8889H116.307V18.1111ZM114.53 18.1111H116.307V19.8889H114.53V18.1111ZM112.752 18.1111H114.53V19.8889H112.752V18.1111ZM119.863 18.1111H121.641V19.8889H119.863V18.1111ZM130.524 7.44444H132.302V9.22222H130.524V7.44444ZM128.747 7.44444H130.524V9.22222H128.747V7.44444ZM132.302 7.44444H134.08V9.22222H132.302V7.44444ZM132.302 9.22222H134.08V11H132.302V9.22222ZM132.302 11H134.08V12.7778H132.302V11ZM132.302 12.7778H134.08V14.5556H132.302V12.7778ZM132.302 14.5556H134.08V16.3333H132.302V14.5556ZM132.302 16.3333H134.08V18.1111H132.302V16.3333ZM130.524 16.3333H132.302V18.1111H130.524V16.3333ZM130.524 14.5556H132.302V16.3333H130.524V14.5556ZM130.524 12.7778H132.302V14.5556H130.524V12.7778ZM130.524 11H132.302V12.7778H130.524V11ZM130.524 9.22222H132.302V11H130.524V9.22222ZM128.747 9.22222H130.524V11H128.747V9.22222ZM128.747 11H130.524V12.7778H128.747V11ZM128.747 12.7778H130.524V14.5556H128.747V12.7778ZM128.747 14.5556H130.524V16.3333H128.747V14.5556ZM128.747 16.3333H130.524V18.1111H128.747V16.3333ZM128.747 18.1111H130.524V19.8889H128.747V18.1111ZM130.524 18.1111H132.302V19.8889H130.524V18.1111ZM132.302 18.1111H134.08V19.8889H132.302V18.1111ZM130.524 19.8889H132.302V21.6667H130.524V19.8889ZM132.302 19.8889H134.08V21.6667H132.302V19.8889ZM134.08 19.8889H135.858V21.6667H134.08V19.8889ZM132.302 21.6667H134.08V23.4444H132.302V21.6667ZM134.08 21.6667H135.858V23.4444H134.08V21.6667ZM135.858 21.6667H137.635V23.4444H135.858V21.6667ZM135.858 23.4444H137.635V25.2222H135.858V23.4444ZM134.08 23.4444H135.858V25.2222H134.08V23.4444ZM137.635 23.4444H139.413V25.2222H137.635V23.4444ZM137.635 25.2222H139.413V27H137.635V25.2222ZM135.858 25.2222H137.635V27H135.858V25.2222ZM137.635 21.6667H139.413V23.4444H137.635V21.6667ZM139.413 21.6667H141.191V23.4444H139.413V21.6667ZM139.413 23.4444H141.191V25.2222H139.413V23.4444ZM139.413 19.8889H141.191V21.6667H139.413V19.8889ZM141.191 19.8889H142.969V21.6667H141.191V19.8889ZM141.191 21.6667H142.969V23.4444H141.191V21.6667ZM142.969 19.8889H144.747V21.6667H142.969V19.8889ZM142.969 18.1111H144.747V19.8889H142.969V18.1111ZM141.191 18.1111H142.969V19.8889H141.191V18.1111ZM142.969 16.3333H144.747V18.1111H142.969V16.3333ZM144.747 16.3333H146.524V18.1111H144.747V16.3333ZM144.747 18.1111H146.524V19.8889H144.747V18.1111ZM142.969 14.5556H144.747V16.3333H142.969V14.5556ZM141.191 14.5556H142.969V16.3333H141.191V14.5556ZM141.191 16.3333H142.969V18.1111H141.191V16.3333ZM141.191 12.7778H142.969V14.5556H141.191V12.7778ZM141.191 11H142.969V12.7778H141.191V11ZM141.191 9.22222H142.969V11H141.191V9.22222ZM141.191 7.44444H142.969V9.22222H141.191V7.44444ZM142.969 7.44444H144.747V9.22222H142.969V7.44444ZM144.747 9.22222H146.524V11H144.747V9.22222ZM144.747 11H146.524V12.7778H144.747V11ZM144.747 12.7778H146.524V14.5556H144.747V12.7778ZM144.747 14.5556H146.524V16.3333H144.747V14.5556ZM144.747 7.44444H146.524V9.22222H144.747V7.44444ZM142.969 9.22222H144.747V11H142.969V9.22222ZM142.969 11H144.747V12.7778H142.969V11ZM142.969 12.7778H144.747V14.5556H142.969V12.7778ZM139.413 18.1111H141.191V19.8889H139.413V18.1111ZM137.635 19.8889H139.413V21.6667H137.635V19.8889ZM135.858 19.8889H137.635V21.6667H135.858V19.8889ZM134.08 18.1111H135.858V19.8889H134.08V18.1111ZM155.408 25.2222H157.186V27H155.408V25.2222ZM157.186 25.2222H158.964V27H157.186V25.2222ZM153.63 25.2222H155.408V27H153.63V25.2222ZM153.63 23.4444H155.408V25.2222H153.63V23.4444ZM153.63 21.6667H155.408V23.4444H153.63V21.6667ZM153.63 19.8889H155.408V21.6667H153.63V19.8889ZM153.63 18.1111H155.408V19.8889H153.63V18.1111ZM153.63 16.3333H155.408V18.1111H153.63V16.3333ZM155.408 14.5556H157.186V16.3333H155.408V14.5556ZM155.408 12.7778H157.186V14.5556H155.408V12.7778ZM155.408 11H157.186V12.7778H155.408V11ZM155.408 9.22222H157.186V11H155.408V9.22222ZM155.408 7.44444H157.186V9.22222H155.408V7.44444ZM155.408 5.66667H157.186V7.44444H155.408V5.66667ZM155.408 3.88889H157.186V5.66667H155.408V3.88889ZM155.408 2.11111H157.186V3.88889H155.408V2.11111ZM153.63 2.11111H155.408V3.88889H153.63V2.11111ZM153.63 0.333332H155.408V2.11111H153.63V0.333332ZM153.63 3.88889H155.408V5.66667H153.63V3.88889ZM153.63 5.66667H155.408V7.44444H153.63V5.66667ZM153.63 7.44444H155.408V9.22222H153.63V7.44444ZM153.63 9.22222H155.408V11H153.63V9.22222ZM153.63 11H155.408V12.7778H153.63V11ZM153.63 12.7778H155.408V14.5556H153.63V12.7778ZM153.63 14.5556H155.408V16.3333H153.63V14.5556ZM155.408 0.333332H157.186V2.11111H155.408V0.333332ZM157.186 0.333332H158.964V2.11111H157.186V0.333332ZM157.186 2.11111H158.964V3.88889H157.186V2.11111ZM157.186 3.88889H158.964V5.66667H157.186V3.88889ZM157.186 5.66667H158.964V7.44444H157.186V5.66667ZM157.186 7.44444H158.964V9.22222H157.186V7.44444ZM157.186 9.22222H158.964V11H157.186V9.22222ZM157.186 11H158.964V12.7778H157.186V11ZM157.186 12.7778H158.964V14.5556H157.186V12.7778ZM157.186 14.5556H158.964V16.3333H157.186V14.5556ZM157.186 16.3333H158.964V18.1111H157.186V16.3333ZM157.186 18.1111H158.964V19.8889H157.186V18.1111ZM157.186 19.8889H158.964V21.6667H157.186V19.8889ZM157.186 21.6667H158.964V23.4444H157.186V21.6667ZM157.186 23.4444H158.964V25.2222H157.186V23.4444ZM155.408 23.4444H157.186V25.2222H155.408V23.4444ZM155.408 21.6667H157.186V23.4444H155.408V21.6667ZM155.408 19.8889H157.186V21.6667H155.408V19.8889ZM155.408 18.1111H157.186V19.8889H155.408V18.1111ZM155.408 16.3333H157.186V18.1111H155.408V16.3333ZM151.852 0.333332H153.63V2.11111H151.852V0.333332ZM150.075 0.333332H151.852V2.11111H150.075V0.333332ZM150.075 2.11111H151.852V3.88889H150.075V2.11111ZM150.075 3.88889H151.852V5.66667H150.075V3.88889ZM151.852 3.88889H153.63V5.66667H151.852V3.88889ZM151.852 2.11111H153.63V3.88889H151.852V2.11111ZM162.497 7.44444H164.274V9.22222H162.497V7.44444ZM162.497 5.66667H164.274V7.44444H162.497V5.66667ZM162.497 3.88889H164.274V5.66667H162.497V3.88889ZM164.274 3.88889H166.052V5.66667H164.274V3.88889ZM164.274 5.66667H166.052V7.44444H164.274V5.66667ZM166.052 5.66667H167.83V7.44444H166.052V5.66667ZM166.052 7.44444H167.83V9.22222H166.052V7.44444ZM164.274 7.44444H166.052V9.22222H164.274V7.44444ZM166.052 3.88889H167.83V5.66667H166.052V3.88889ZM167.83 5.66667H169.608V7.44444H167.83V5.66667ZM166.052 2.11111H167.83V3.88889H166.052V2.11111ZM164.274 2.11111H166.052V3.88889H164.274V2.11111ZM166.052 0.333332H167.83V2.11111H166.052V0.333332ZM167.83 0.333332H169.608V2.11111H167.83V0.333332ZM169.608 0.333332H171.385V2.11111H169.608V0.333332ZM171.385 0.333332H173.163V2.11111H171.385V0.333332ZM173.163 0.333332H174.941V2.11111H173.163V0.333332ZM174.941 0.333332H176.719V2.11111H174.941V0.333332ZM174.941 2.11111H176.719V3.88889H174.941V2.11111ZM176.719 2.11111H178.497V3.88889H176.719V2.11111ZM173.163 2.11111H174.941V3.88889H173.163V2.11111ZM171.385 2.11111H173.163V3.88889H171.385V2.11111ZM169.608 2.11111H171.385V3.88889H169.608V2.11111ZM167.83 2.11111H169.608V3.88889H167.83V2.11111ZM167.83 3.88889H169.608V5.66667H167.83V3.88889ZM169.608 3.88889H171.385V5.66667H169.608V3.88889ZM171.385 3.88889H173.163V5.66667H171.385V3.88889ZM173.163 3.88889H174.941V5.66667H173.163V3.88889ZM174.941 3.88889H176.719V5.66667H174.941V3.88889ZM176.719 3.88889H178.497V5.66667H176.719V3.88889ZM176.719 5.66667H178.497V7.44444H176.719V5.66667ZM178.497 5.66667H180.274V7.44444H178.497V5.66667ZM178.497 3.88889H180.274V5.66667H178.497V3.88889ZM174.941 5.66667H176.719V7.44444H174.941V5.66667ZM173.163 5.66667H174.941V7.44444H173.163V5.66667ZM176.719 7.44444H178.497V9.22222H176.719V7.44444ZM174.941 7.44444H176.719V9.22222H174.941V7.44444ZM174.941 9.22222H176.719V11H174.941V9.22222ZM174.941 11H176.719V12.7778H174.941V11ZM176.719 11H178.497V12.7778H176.719V11ZM176.719 9.22222H178.497V11H176.719V9.22222ZM178.497 9.22222H180.274V11H178.497V9.22222ZM178.497 7.44444H180.274V9.22222H178.497V7.44444ZM178.497 11H180.274V12.7778H178.497V11ZM173.163 11H174.941V12.7778H173.163V11ZM174.941 12.7778H176.719V14.5556H174.941V12.7778ZM176.719 12.7778H178.497V14.5556H176.719V12.7778ZM173.163 12.7778H174.941V14.5556H173.163V12.7778ZM171.385 12.7778H173.163V14.5556H171.385V12.7778ZM173.163 14.5556H174.941V16.3333H173.163V14.5556ZM174.941 14.5556H176.719V16.3333H174.941V14.5556ZM173.163 16.3333H174.941V18.1111H173.163V16.3333ZM171.385 16.3333H173.163V18.1111H171.385V16.3333ZM169.608 16.3333H171.385V18.1111H169.608V16.3333ZM169.608 18.1111H171.385V19.8889H169.608V18.1111ZM171.385 18.1111H173.163V19.8889H171.385V18.1111ZM171.385 14.5556H173.163V16.3333H171.385V14.5556ZM169.608 14.5556H171.385V16.3333H169.608V14.5556ZM167.83 16.3333H169.608V18.1111H167.83V16.3333ZM167.83 18.1111H169.608V19.8889H167.83V18.1111ZM166.052 18.1111H167.83V19.8889H166.052V18.1111ZM166.052 19.8889H167.83V21.6667H166.052V19.8889ZM167.83 19.8889H169.608V21.6667H167.83V19.8889ZM169.608 19.8889H171.385V21.6667H169.608V19.8889ZM164.274 19.8889H166.052V21.6667H164.274V19.8889ZM164.274 21.6667H166.052V23.4444H164.274V21.6667ZM162.497 21.6667H164.274V23.4444H162.497V21.6667ZM162.497 23.4444H164.274V25.2222H162.497V23.4444ZM164.274 23.4444H166.052V25.2222H164.274V23.4444ZM164.274 25.2222H166.052V27H164.274V25.2222ZM166.052 25.2222H167.83V27H166.052V25.2222ZM167.83 25.2222H169.608V27H167.83V25.2222ZM169.608 25.2222H171.385V27H169.608V25.2222ZM162.497 25.2222H164.274V27H162.497V25.2222ZM178.497 21.6667H180.274V23.4444H178.497V21.6667ZM176.719 21.6667H178.497V23.4444H176.719V21.6667ZM174.941 21.6667H176.719V23.4444H174.941V21.6667ZM173.163 21.6667H174.941V23.4444H173.163V21.6667ZM169.608 21.6667H171.385V23.4444H169.608V21.6667ZM167.83 21.6667H169.608V23.4444H167.83V21.6667ZM166.052 21.6667H167.83V23.4444H166.052V21.6667ZM166.052 23.4444H167.83V25.2222H166.052V23.4444ZM167.83 23.4444H169.608V25.2222H167.83V23.4444ZM169.608 23.4444H171.385V25.2222H169.608V23.4444ZM171.385 23.4444H173.163V25.2222H171.385V23.4444ZM173.163 23.4444H174.941V25.2222H173.163V23.4444ZM171.385 21.6667H173.163V23.4444H171.385V21.6667ZM178.497 23.4444H180.274V25.2222H178.497V23.4444ZM176.719 23.4444H178.497V25.2222H176.719V23.4444ZM174.941 23.4444H176.719V25.2222H174.941V23.4444ZM171.385 25.2222H173.163V27H171.385V25.2222ZM173.163 25.2222H174.941V27H173.163V25.2222ZM174.941 25.2222H176.719V27H174.941V25.2222ZM176.719 25.2222H178.497V27H176.719V25.2222ZM178.497 25.2222H180.274V27H178.497V25.2222Z" fill="url(#paint0_linear_77_2)"/>
<defs>
<linearGradient id="paint0_linear_77_2" x1="6" y1="39.5" x2="175" y2="0.5" gradientUnits="userSpaceOnUse">
<stop stop-color="#46AEBA"/>
<stop offset="0.5" stop-color="#4F7FEE"/>
<stop offset="1" stop-color="#43E69C"/>
</linearGradient>
</defs>
</svg>
